<svg width="24" height="24" viewBox="0 0 24 24" fill="none" xmlns="http://www.w3.org/2000/svg">
<path fill-rule="evenodd" clip-rule="evenodd" d="M12 0C11.5017 0 11.0977 0.403946 11.0977 0.902261V4.8223C11.0977 5.3206 11.5017 5.72456 12 5.72456C12.4983 5.72456 12.9022 5.3206 12.9022 4.8223V1.84389C18.1104 2.30057 22.1955 6.67322 22.1955 12C22.1955 17.6308 17.6308 22.1955 12 22.1955C6.36918 22.1955 1.80452 17.6308 1.80452 12C1.80452 9.48475 2.71415 7.18429 4.22348 5.40617C4.54594 5.02628 4.49938 4.45691 4.11948 4.13444C3.7396 3.81198 3.17022 3.85853 2.84775 4.23842C1.07201 6.3304 0 9.04115 0 12C0 18.6274 5.37257 24 12 24C18.6274 24 24 18.6274 24 12C24 5.37257 18.6274 0 12 0ZM10.6295 13.0479L6.08779 6.71709C5.95909 6.53769 5.97921 6.2915 6.13533 6.13537C6.29144 5.97924 6.53765 5.95912 6.71704 6.08782L13.0479 10.6295C13.9169 11.2529 14.0194 12.5069 13.2631 13.2632C12.5069 14.0194 11.2529 13.9169 10.6295 13.0479Z" fill="#9095A1"/>
</svg>
