<svg width="36" height="36" viewBox="0 0 36 36" fill="none" xmlns="http://www.w3.org/2000/svg">
<path d="M24.2589 11.7669L22.4124 8.56912C22.0967 8.02247 21.3076 8.02255 20.992 8.56928L17.7296 14.2222L15.1728 18.65L17.7296 23.0779L19.4525 20.0958L20.2865 18.65L21.702 16.1975L28.9419 28.422H32.924C33.5635 28.422 33.9569 27.7226 33.6248 27.1761L24.2589 11.7669Z" fill="#171A1F"/>
<path d="M17.2278 23.9771H12.6875L10.1306 28.4049H14.6709L17.2278 23.9771Z" fill="url(#paint0_linear_20_4121)"/>
<path d="M12.6849 23.994L10.1281 28.4218H24.5316C25.1628 28.4218 25.5573 27.7384 25.2417 27.1917L23.3951 23.994L20.3116 18.6498L17.7547 14.222L16.3364 11.7666L14.4897 8.56865C14.1741 8.02203 13.3851 8.02203 13.0694 8.56869L2.31726 27.1918C2.00164 27.7384 2.39616 28.4218 3.0274 28.4218H6.72079L11.53 20.0956L13.7796 16.1972L15.1979 18.6498L17.7547 23.0776L18.2814 23.994H17.2252H12.6849Z" fill="#9095A1"/>
<defs>
<linearGradient id="paint0_linear_20_4121" x1="24.0616" y1="8.42752" x2="12.5091" y2="28.1937" gradientUnits="userSpaceOnUse">
<stop stop-color="#58CAEF"/>
<stop offset="0.18" stop-color="#4EBEE8"/>
<stop offset="0.5" stop-color="#33A1D6"/>
<stop offset="0.92" stop-color="#0871B9"/>
<stop offset="1" stop-color="#0067B3"/>
</linearGradient>
</defs>
</svg>
