<svg width="213" height="42" viewBox="0 0 213 42" fill="none" xmlns="http://www.w3.org/2000/svg">
<path d="M24.2589 14.7669L22.4124 11.5691C22.0967 11.0225 21.3076 11.0225 20.992 11.5693L17.7296 17.2222L15.1728 21.65L17.7296 26.0779L19.4525 23.0958L20.2865 21.65L21.702 19.1975L28.9419 31.422H32.924C33.5635 31.422 33.9569 30.7226 33.6248 30.1761L24.2589 14.7669Z" fill="#171A1F"/>
<path d="M17.2278 26.9771H12.6875L10.1306 31.4049H14.6709L17.2278 26.9771Z" fill="url(#paint0_linear_84_124)"/>
<path d="M12.6849 26.994L10.1281 31.4218H24.5316C25.1628 31.4218 25.5573 30.7384 25.2417 30.1917L23.3951 26.994L20.3116 21.6498L17.7547 17.222L16.3364 14.7666L14.4897 11.5686C14.1741 11.022 13.3851 11.022 13.0694 11.5687L2.31726 30.1918C2.00164 30.7384 2.39616 31.4218 3.0274 31.4218H6.72079L11.53 23.0956L13.7796 19.1972L15.1979 21.6498L17.7547 26.0776L18.2814 26.994H17.2252H12.6849Z" fill="#9095A1"/>
<path d="M45.972 32L53.728 12.4L57.76 12.4L65.46 32H60.644L56.948 22.06C56.7987 21.668 56.6493 21.248 56.5 20.8C56.3507 20.352 56.2013 19.8947 56.052 19.428C55.9027 18.9427 55.7533 18.476 55.604 18.028C55.4733 17.5613 55.3613 17.132 55.268 16.74L56.108 16.712C55.996 17.1787 55.8653 17.636 55.716 18.084C55.5853 18.532 55.4453 18.98 55.296 19.428C55.1653 19.8573 55.016 20.296 54.848 20.744C54.68 21.1733 54.5213 21.6213 54.372 22.088L50.676 32H45.972ZM49.668 28.248L51.152 24.664L60.168 24.664L61.624 28.248L49.668 28.248ZM82.1145 35.08L74.6105 24.916L78.1105 22.48L85.5305 32.56L82.1145 35.08ZM76.2625 32.28C74.7879 32.28 73.4345 32.028 72.2025 31.524C70.9705 31.02 69.8972 30.3107 68.9825 29.396C68.0679 28.4813 67.3585 27.408 66.8545 26.176C66.3505 24.944 66.0985 23.5907 66.0985 22.116C66.0985 20.6413 66.3505 19.288 66.8545 18.056C67.3585 16.824 68.0679 15.7507 68.9825 14.836C69.8972 13.9213 70.9705 13.212 72.2025 12.708C73.4345 12.204 74.7879 11.952 76.2625 11.952C77.7372 11.952 79.0905 12.204 80.3225 12.708C81.5545 13.212 82.6279 13.9213 83.5425 14.836C84.4572 15.7507 85.1572 16.824 85.6425 18.056C86.1465 19.288 86.3985 20.6413 86.3985 22.116C86.3985 23.572 86.1465 24.9253 85.6425 26.176C85.1572 27.408 84.4572 28.4813 83.5425 29.396C82.6279 30.3107 81.5545 31.02 80.3225 31.524C79.0905 32.028 77.7372 32.28 76.2625 32.28ZM76.2625 27.8C77.0279 27.8 77.7279 27.66 78.3625 27.38C79.0159 27.1 79.5759 26.708 80.0425 26.204C80.5279 25.6813 80.9012 25.0747 81.1625 24.384C81.4239 23.6933 81.5545 22.9373 81.5545 22.116C81.5545 21.2947 81.4239 20.5387 81.1625 19.848C80.9012 19.1573 80.5279 18.56 80.0425 18.056C79.5759 17.5333 79.0159 17.132 78.3625 16.852C77.7279 16.572 77.0279 16.432 76.2625 16.432C75.4972 16.432 74.7879 16.572 74.1345 16.852C73.4999 17.132 72.9399 17.5333 72.4545 18.056C71.9692 18.56 71.5959 19.1573 71.3345 19.848C71.0919 20.5387 70.9705 21.2947 70.9705 22.116C70.9705 22.9373 71.0919 23.7027 71.3345 24.412C71.5959 25.1027 71.9692 25.7 72.4545 26.204C72.9399 26.708 73.4999 27.1 74.1345 27.38C74.7879 27.66 75.4972 27.8 76.2625 27.8ZM98.3412 32.168C96.7172 32.168 95.2705 31.8413 94.0012 31.188C92.7319 30.516 91.7332 29.6013 91.0052 28.444C90.2959 27.2867 89.9412 25.9613 89.9412 24.468V12.4L94.7572 12.4V24.216C94.7572 24.9253 94.9159 25.5693 95.2332 26.148C95.5505 26.708 95.9799 27.156 96.5212 27.492C97.0625 27.8093 97.6692 27.968 98.3412 27.968C99.0505 27.968 99.6759 27.8093 100.217 27.492C100.777 27.156 101.225 26.708 101.561 26.148C101.897 25.5693 102.065 24.9253 102.065 24.216V12.4H106.713V24.468C106.713 25.9613 106.349 27.2867 105.621 28.444C104.912 29.6013 103.923 30.516 102.653 31.188C101.384 31.8413 99.9465 32.168 98.3412 32.168ZM108.452 32L116.208 12.4H120.24L127.94 32H123.124L119.428 22.06C119.279 21.668 119.13 21.248 118.98 20.8C118.831 20.352 118.682 19.8947 118.532 19.428C118.383 18.9427 118.234 18.476 118.084 18.028C117.954 17.5613 117.842 17.132 117.748 16.74L118.588 16.712C118.476 17.1787 118.346 17.636 118.196 18.084C118.066 18.532 117.926 18.98 117.776 19.428C117.646 19.8573 117.496 20.296 117.328 20.744C117.16 21.1733 117.002 21.6213 116.852 22.088L113.156 32H108.452ZM112.148 28.248L113.632 24.664H122.648L124.104 28.248H112.148ZM133.247 32V16.6H127.423V12.4L143.971 12.4V16.6L138.007 16.6V32H133.247ZM159.491 32V12.4H164.251V32H159.491ZM147.339 32V12.4L152.099 12.4V32L147.339 32ZM149.187 24.356L149.215 20.1L162.011 20.1V24.356L149.187 24.356ZM178.091 32.28C176.598 32.28 175.235 32.028 174.003 31.524C172.771 31.02 171.698 30.3107 170.783 29.396C169.869 28.4813 169.159 27.408 168.655 26.176C168.151 24.944 167.899 23.5907 167.899 22.116C167.899 20.6413 168.151 19.288 168.655 18.056C169.159 16.824 169.869 15.7507 170.783 14.836C171.698 13.9213 172.771 13.212 174.003 12.708C175.235 12.204 176.589 11.952 178.063 11.952C179.538 11.952 180.891 12.204 182.123 12.708C183.355 13.212 184.429 13.9213 185.343 14.836C186.258 15.7507 186.958 16.824 187.443 18.056C187.947 19.288 188.199 20.6413 188.199 22.116C188.199 23.572 187.947 24.9253 187.443 26.176C186.958 27.408 186.258 28.4813 185.343 29.396C184.429 30.3107 183.355 31.02 182.123 31.524C180.891 32.028 179.547 32.28 178.091 32.28ZM178.063 27.8C178.829 27.8 179.529 27.66 180.163 27.38C180.817 27.1 181.377 26.708 181.843 26.204C182.329 25.6813 182.702 25.0747 182.963 24.384C183.225 23.6933 183.355 22.9373 183.355 22.116C183.355 21.2947 183.225 20.5387 182.963 19.848C182.702 19.1573 182.329 18.56 181.843 18.056C181.377 17.5333 180.817 17.132 180.163 16.852C179.529 16.572 178.829 16.432 178.063 16.432C177.298 16.432 176.589 16.572 175.935 16.852C175.301 17.132 174.741 17.5333 174.255 18.056C173.77 18.56 173.397 19.1573 173.135 19.848C172.893 20.5387 172.771 21.2947 172.771 22.116C172.771 22.9373 172.893 23.7027 173.135 24.412C173.397 25.1027 173.77 25.7 174.255 26.204C174.741 26.708 175.301 27.1 175.935 27.38C176.589 27.66 177.298 27.8 178.063 27.8ZM191.882 32V12.4L196.138 12.4L206.414 26.4L205.49 26.26C205.397 25.644 205.322 25.056 205.266 24.496C205.21 23.936 205.154 23.3853 205.098 22.844C205.061 22.3027 205.023 21.752 204.986 21.192C204.967 20.632 204.949 20.0253 204.93 19.372C204.93 18.7187 204.93 18.0093 204.93 17.244V12.4L209.55 12.4V32L205.238 32L194.514 17.552L195.942 17.748C196.035 18.644 196.11 19.4093 196.166 20.044C196.241 20.66 196.297 21.2107 196.334 21.696C196.39 22.1813 196.427 22.62 196.446 23.012C196.465 23.404 196.474 23.796 196.474 24.188C196.493 24.5613 196.502 24.9813 196.502 25.448V32H191.882Z" fill="black"/>
<defs>
<linearGradient id="paint0_linear_84_124" x1="24.0616" y1="11.4275" x2="12.5091" y2="31.1937" gradientUnits="userSpaceOnUse">
<stop stop-color="#58CAEF"/>
<stop offset="0.18" stop-color="#4EBEE8"/>
<stop offset="0.5" stop-color="#33A1D6"/>
<stop offset="0.92" stop-color="#0871B9"/>
<stop offset="1" stop-color="#0067B3"/>
</linearGradient>
</defs>
</svg>
