<svg width="191" height="29" viewBox="0 0 191 29" fill="none" xmlns="http://www.w3.org/2000/svg">
<path d="M23.0526 6.60794L21.2061 3.41018C20.8905 2.86353 20.1013 2.86361 19.7858 3.41035L16.5234 9.06326L13.9666 13.4911L16.5234 17.9189L18.2463 14.9369L19.0802 13.4911L20.4958 11.0385L27.7356 23.2631H31.7178C32.3573 23.2631 32.7507 22.5636 32.4185 22.0172L23.0526 6.60794Z" fill="white"/>
<path d="M16.0217 18.8181H11.4814L8.92456 23.246H13.4649L16.0217 18.8181Z" fill="white"/>
<path d="M10.4788 18.8355L7.92192 23.2633H22.3254C22.9567 23.2633 23.3512 22.58 23.0355 22.0333L21.1889 18.8355L18.1054 13.4914L15.5485 9.06352L14.1302 6.6082L12.2835 3.4102C11.9679 2.86359 11.1789 2.86359 10.8633 3.41024L0.111085 22.0333C-0.204537 22.58 0.189985 23.2633 0.821225 23.2633H4.51462L9.32379 14.9371L11.5734 11.0388L12.9917 13.4914L15.5485 17.9192L16.0753 18.8355H15.0191H10.4788Z" fill="#F4F4F4"/>
<path d="M55.5256 23H51.571L57.5966 5.54545L62.3523 5.54545L68.3693 23H64.4148L60.0426 9.53409H59.9062L55.5256 23ZM55.2784 16.1392L64.6193 16.1392V19.0199L55.2784 19.0199L55.2784 16.1392ZM76.2379 16.9318H79.3743L80.951 18.9602L82.5021 20.767L85.4254 24.4318H81.9822L79.9709 21.9602L78.9396 20.4943L76.2379 16.9318ZM85.6896 14.2727C85.6896 16.1761 85.3288 17.7955 84.6072 19.1307C83.8913 20.4659 82.9141 21.4858 81.6754 22.1903C80.4425 22.8892 79.0561 23.2386 77.5163 23.2386C75.9652 23.2386 74.5732 22.8864 73.3402 22.1818C72.1072 21.4773 71.1328 20.4574 70.4169 19.1222C69.701 17.7869 69.343 16.1705 69.343 14.2727C69.343 12.3693 69.701 10.75 70.4169 9.41477C71.1328 8.07955 72.1072 7.0625 73.3402 6.36364C74.5732 5.65909 75.9652 5.30682 77.5163 5.30682C79.0561 5.30682 80.4425 5.65909 81.6754 6.36364C82.9141 7.0625 83.8913 8.07955 84.6072 9.41477C85.3288 10.75 85.6896 12.3693 85.6896 14.2727ZM81.9482 14.2727C81.9482 13.0398 81.7635 12 81.3942 11.1534C81.0305 10.3068 80.5163 9.66477 79.8516 9.22727C79.1868 8.78977 78.4084 8.57102 77.5163 8.57102C76.6243 8.57102 75.8459 8.78977 75.1811 9.22727C74.5163 9.66477 73.9993 10.3068 73.63 11.1534C73.2663 12 73.0845 13.0398 73.0845 14.2727C73.0845 15.5057 73.2663 16.5455 73.63 17.392C73.9993 18.2386 74.5163 18.8807 75.1811 19.3182C75.8459 19.7557 76.6243 19.9744 77.5163 19.9744C78.4084 19.9744 79.1868 19.7557 79.8516 19.3182C80.5163 18.8807 81.0305 18.2386 81.3942 17.392C81.7635 16.5455 81.9482 15.5057 81.9482 14.2727ZM99.2045 5.54545L102.895 5.54545V16.8807C102.895 18.1534 102.591 19.267 101.983 20.2216C101.381 21.1761 100.537 21.9205 99.4517 22.4545C98.3665 22.983 97.1023 23.2472 95.6591 23.2472C94.2102 23.2472 92.9432 22.983 91.858 22.4545C90.7727 21.9205 89.929 21.1761 89.3267 20.2216C88.7244 19.267 88.4233 18.1534 88.4233 16.8807V5.54545L92.1136 5.54545V16.5653C92.1136 17.2301 92.2585 17.821 92.5483 18.3381C92.8438 18.8551 93.2585 19.2614 93.7926 19.5568C94.3267 19.8523 94.9489 20 95.6591 20C96.375 20 96.9972 19.8523 97.5256 19.5568C98.0597 19.2614 98.4716 18.8551 98.7614 18.3381C99.0568 17.821 99.2045 17.2301 99.2045 16.5653V5.54545ZM108.94 23H104.985L111.011 5.54545L115.766 5.54545L121.783 23H117.829L113.457 9.53409H113.32L108.94 23ZM108.692 16.1392L118.033 16.1392V19.0199L108.692 19.0199V16.1392ZM121.087 8.58807V5.54545L135.422 5.54545V8.58807L130.078 8.58807V23H126.43V8.58807H121.087ZM137.783 23V5.54545L141.473 5.54545V12.7472L148.964 12.7472V5.54545L152.646 5.54545V23H148.964V15.7898L141.473 15.7898V23H137.783ZM171.729 14.2727C171.729 16.1761 171.368 17.7955 170.646 19.1307C169.93 20.4659 168.953 21.4858 167.714 22.1903C166.482 22.8892 165.095 23.2386 163.555 23.2386C162.004 23.2386 160.612 22.8864 159.379 22.1818C158.146 21.4773 157.172 20.4574 156.456 19.1222C155.74 17.7869 155.382 16.1705 155.382 14.2727C155.382 12.3693 155.74 10.75 156.456 9.41477C157.172 8.07955 158.146 7.0625 159.379 6.36364C160.612 5.65909 162.004 5.30682 163.555 5.30682C165.095 5.30682 166.482 5.65909 167.714 6.36364C168.953 7.0625 169.93 8.07955 170.646 9.41477C171.368 10.75 171.729 12.3693 171.729 14.2727ZM167.987 14.2727C167.987 13.0398 167.803 12 167.433 11.1534C167.07 10.3068 166.555 9.66477 165.891 9.22727C165.226 8.78977 164.447 8.57102 163.555 8.57102C162.663 8.57102 161.885 8.78977 161.22 9.22727C160.555 9.66477 160.038 10.3068 159.669 11.1534C159.305 12 159.124 13.0398 159.124 14.2727C159.124 15.5057 159.305 16.5455 159.669 17.392C160.038 18.2386 160.555 18.8807 161.22 19.3182C161.885 19.7557 162.663 19.9744 163.555 19.9744C164.447 19.9744 165.226 19.7557 165.891 19.3182C166.555 18.8807 167.07 18.2386 167.433 17.392C167.803 16.5455 167.987 15.5057 167.987 14.2727ZM189.062 5.54545V23L185.874 23L178.281 12.0142H178.153V23H174.462V5.54545L177.701 5.54545L185.235 16.5227H185.388V5.54545L189.062 5.54545Z" fill="white"/>
</svg>
